<?xml version="1.0" encoding="utf-8"?><svg width="auto" height="5870" style="overflow:visible " version="1.1" xmlns="http://www.w3.org/2000/svg"><rect x="20" y="20" width="200" height="40" style="fill:white;stroke:black;stroke-width:1" /><text x="30" y="30" font-size="10" style="fill:blue">xs:schema</text><text x="30" y="40" font-size="8" style="fill:black">elementFormDefault: qualified</text><text x="30" y="50" font-size="8" style="fill:black">xmlns:xs: http://www.w3.org/2001/XMLSchema</text><rect x="240" y="20" width="200" height="40" style="fill:white;stroke:black;stroke-width:1" /><text x="250" y="30" font-size="10" style="fill:blue">xs:element</text><path d="M220 40 C240 40 220 40 240 40" style="fill:transparent;stroke:black" /><text x="250" y="40" font-size="8" style="fill:black">name: rutas</text><rect x="460" y="20" width="200" height="40" style="fill:white;stroke:black;stroke-width:1" /><text x="470" y="30" font-size="10" style="fill:blue">xs:complexType</text><path d="M440 40 C460 40 440 40 460 40" style="fill:transparent;stroke:black" /><rect x="680" y="20" width="200" height="40" style="fill:white;stroke:black;stroke-width:1" /><text x="690" y="30" font-size="10" style="fill:blue">xs:sequence</text><path d="M660 40 C680 40 660 40 680 40" style="fill:transparent;stroke:black" /><rect x="900" y="20" width="200" height="40" style="fill:white;stroke:black;stroke-width:1" /><text x="910" y="30" font-size="10" style="fill:blue">xs:element</text><path d="M880 40 C900 40 880 40 900 40" style="fill:transparent;stroke:black" /><text x="910" y="40" font-size="8" style="fill:black">minOccurs: 1</text><text x="910" y="50" font-size="8" style="fill:black">maxOccurs: unbounded</text><text x="910" y="60" font-size="8" style="fill:black">ref: RutaTuristica</text><rect x="240" y="220" width="200" height="40" style="fill:white;stroke:black;stroke-width:1" /><text x="250" y="230" font-size="10" style="fill:blue">xs:element</text><path d="M220 40 C240 40 220 240 240 240" style="fill:transparent;stroke:black" /><text x="250" y="240" font-size="8" style="fill:black">name: RutaTuristica</text><rect x="460" y="220" width="200" height="40" style="fill:white;stroke:black;stroke-width:1" /><text x="470" y="230" font-size="10" style="fill:blue">xs:complexType</text><path d="M440 240 C460 240 440 240 460 240" style="fill:transparent;stroke:black" /><rect x="680" y="220" width="200" height="40" style="fill:white;stroke:black;stroke-width:1" /><text x="690" y="230" font-size="10" style="fill:blue">xs:sequence</text><path d="M660 240 C680 240 660 240 680 240" style="fill:transparent;stroke:black" /><rect x="900" y="220" width="200" height="40" style="fill:white;stroke:black;stroke-width:1" /><text x="910" y="230" font-size="10" style="fill:blue">xs:element</text><path d="M880 240 C900 240 880 240 900 240" style="fill:transparent;stroke:black" /><text x="910" y="240" font-size="8" style="fill:black">ref: Duracion</text><rect x="900" y="270" width="200" height="40" style="fill:white;stroke:black;stroke-width:1" /><text x="910" y="280" font-size="10" style="fill:blue">xs:element</text><path d="M880 240 C900 240 880 290 900 290" style="fill:transparent;stroke:black" /><text x="910" y="290" font-size="8" style="fill:black">ref: Descripcion</text><rect x="900" y="320" width="200" height="40" style="fill:white;stroke:black;stroke-width:1" /><text x="910" y="330" font-size="10" style="fill:blue">xs:element</text><path d="M880 240 C900 240 880 340 900 340" style="fill:transparent;stroke:black" /><text x="910" y="340" font-size="8" style="fill:black">ref: Recomendaciones</text><rect x="900" y="370" width="200" height="40" style="fill:white;stroke:black;stroke-width:1" /><text x="910" y="380" font-size="10" style="fill:blue">xs:element</text><path d="M880 240 C900 240 880 390 900 390" style="fill:transparent;stroke:black" /><text x="910" y="390" font-size="8" style="fill:black">ref: Localizacion</text><rect x="900" y="420" width="200" height="40" style="fill:white;stroke:black;stroke-width:1" /><text x="910" y="430" font-size="10" style="fill:blue">xs:element</text><path d="M880 240 C900 240 880 440 900 440" style="fill:transparent;stroke:black" /><text x="910" y="440" font-size="8" style="fill:black">ref: Referencias</text><rect x="900" y="470" width="200" height="40" style="fill:white;stroke:black;stroke-width:1" /><text x="910" y="480" font-size="10" style="fill:blue">xs:element</text><path d="M880 240 C900 240 880 490 900 490" style="fill:transparent;stroke:black" /><text x="910" y="490" font-size="8" style="fill:black">minOccurs: 0</text><text x="910" y="500" font-size="8" style="fill:black">maxOccurs: 1</text><text x="910" y="510" font-size="8" style="fill:black">ref: coordenadasRuta</text><rect x="900" y="520" width="200" height="40" style="fill:white;stroke:black;stroke-width:1" /><text x="910" y="530" font-size="10" style="fill:blue">xs:element</text><path d="M880 240 C900 240 880 540 900 540" style="fill:transparent;stroke:black" /><text x="910" y="540" font-size="8" style="fill:black">ref: Hitos</text><rect x="680" y="620" width="200" height="40" style="fill:white;stroke:black;stroke-width:1" /><text x="690" y="630" font-size="10" style="fill:blue">xs:attribute</text><path d="M660 240 C680 240 660 640 680 640" style="fill:transparent;stroke:black" /><text x="690" y="640" font-size="8" style="fill:black">name: nombre</text><text x="690" y="650" font-size="8" style="fill:black">type: xs:string</text><text x="690" y="660" font-size="8" style="fill:black">use: required</text><rect x="680" y="670" width="200" height="40" style="fill:white;stroke:black;stroke-width:1" /><text x="690" y="680" font-size="10" style="fill:blue">xs:attribute</text><path d="M660 240 C680 240 660 690 680 690" style="fill:transparent;stroke:black" /><text x="690" y="690" font-size="8" style="fill:black">name: tipo</text><text x="690" y="700" font-size="8" style="fill:black">type: xs:string</text><text x="690" y="710" font-size="8" style="fill:black">use: required</text><rect x="680" y="720" width="200" height="40" style="fill:white;stroke:black;stroke-width:1" /><text x="690" y="730" font-size="10" style="fill:blue">xs:attribute</text><path d="M660 240 C680 240 660 740 680 740" style="fill:transparent;stroke:black" /><text x="690" y="740" font-size="8" style="fill:black">name: dificaultad</text><text x="690" y="750" font-size="8" style="fill:black">type: xs:string</text><text x="690" y="760" font-size="8" style="fill:black">use: required</text><rect x="680" y="770" width="200" height="40" style="fill:white;stroke:black;stroke-width:1" /><text x="690" y="780" font-size="10" style="fill:blue">xs:attribute</text><path d="M660 240 C680 240 660 790 680 790" style="fill:transparent;stroke:black" /><text x="690" y="790" font-size="8" style="fill:black">name: puntuacion</text><text x="690" y="800" font-size="8" style="fill:black">type: xs:string</text><text x="690" y="810" font-size="8" style="fill:black">use: required</text><rect x="680" y="820" width="200" height="40" style="fill:white;stroke:black;stroke-width:1" /><text x="690" y="830" font-size="10" style="fill:blue">xs:attribute</text><path d="M660 240 C680 240 660 840 680 840" style="fill:transparent;stroke:black" /><text x="690" y="840" font-size="8" style="fill:black">name: Agencia</text><text x="690" y="850" font-size="8" style="fill:black">type: xs:string</text><text x="690" y="860" font-size="8" style="fill:black">use: required</text><rect x="240" y="970" width="200" height="40" style="fill:white;stroke:black;stroke-width:1" /><text x="250" y="980" font-size="10" style="fill:blue">xs:element</text><path d="M220 40 C240 40 220 990 240 990" style="fill:transparent;stroke:black" /><text x="250" y="990" font-size="8" style="fill:black">name: Duracion</text><rect x="460" y="970" width="200" height="40" style="fill:white;stroke:black;stroke-width:1" /><text x="470" y="980" font-size="10" style="fill:blue">xs:complexType</text><path d="M440 990 C460 990 440 990 460 990" style="fill:transparent;stroke:black" /><rect x="680" y="970" width="200" height="40" style="fill:white;stroke:black;stroke-width:1" /><text x="690" y="980" font-size="10" style="fill:blue">xs:sequence</text><path d="M660 990 C680 990 660 990 680 990" style="fill:transparent;stroke:black" /><rect x="900" y="970" width="200" height="40" style="fill:white;stroke:black;stroke-width:1" /><text x="910" y="980" font-size="10" style="fill:blue">xs:element</text><path d="M880 990 C900 990 880 990 900 990" style="fill:transparent;stroke:black" /><text x="910" y="990" font-size="8" style="fill:black">ref: fecha</text><rect x="900" y="1020" width="200" height="40" style="fill:white;stroke:black;stroke-width:1" /><text x="910" y="1030" font-size="10" style="fill:blue">xs:element</text><path d="M880 990 C900 990 880 1040 900 1040" style="fill:transparent;stroke:black" /><text x="910" y="1040" font-size="8" style="fill:black">ref: hora</text><rect x="900" y="1070" width="200" height="40" style="fill:white;stroke:black;stroke-width:1" /><text x="910" y="1080" font-size="10" style="fill:blue">xs:element</text><path d="M880 990 C900 990 880 1090 900 1090" style="fill:transparent;stroke:black" /><text x="910" y="1090" font-size="8" style="fill:black">minOccurs: 0</text><text x="910" y="1100" font-size="8" style="fill:black">maxOccurs: unbounded</text><text x="910" y="1110" font-size="8" style="fill:black">ref: tiempo</text><rect x="240" y="1270" width="200" height="40" style="fill:white;stroke:black;stroke-width:1" /><text x="250" y="1280" font-size="10" style="fill:blue">xs:element</text><path d="M220 40 C240 40 220 1290 240 1290" style="fill:transparent;stroke:black" /><text x="250" y="1290" font-size="8" style="fill:black">name: Recomendaciones</text><rect x="460" y="1270" width="200" height="40" style="fill:white;stroke:black;stroke-width:1" /><text x="470" y="1280" font-size="10" style="fill:blue">xs:complexType</text><path d="M440 1290 C460 1290 440 1290 460 1290" style="fill:transparent;stroke:black" /><rect x="680" y="1270" width="200" height="40" style="fill:white;stroke:black;stroke-width:1" /><text x="690" y="1280" font-size="10" style="fill:blue">xs:sequence</text><path d="M660 1290 C680 1290 660 1290 680 1290" style="fill:transparent;stroke:black" /><rect x="900" y="1270" width="200" height="40" style="fill:white;stroke:black;stroke-width:1" /><text x="910" y="1280" font-size="10" style="fill:blue">xs:element</text><path d="M880 1290 C900 1290 880 1290 900 1290" style="fill:transparent;stroke:black" /><text x="910" y="1290" font-size="8" style="fill:black">minOccurs: 1</text><text x="910" y="1300" font-size="8" style="fill:black">maxOccurs: unbounded</text><text x="910" y="1310" font-size="8" style="fill:black">ref: recomendacion</text><rect x="240" y="1470" width="200" height="40" style="fill:white;stroke:black;stroke-width:1" /><text x="250" y="1480" font-size="10" style="fill:blue">xs:element</text><path d="M220 40 C240 40 220 1490 240 1490" style="fill:transparent;stroke:black" /><text x="250" y="1490" font-size="8" style="fill:black">name: Localizacion</text><rect x="460" y="1470" width="200" height="40" style="fill:white;stroke:black;stroke-width:1" /><text x="470" y="1480" font-size="10" style="fill:blue">xs:complexType</text><path d="M440 1490 C460 1490 440 1490 460 1490" style="fill:transparent;stroke:black" /><rect x="680" y="1470" width="200" height="40" style="fill:white;stroke:black;stroke-width:1" /><text x="690" y="1480" font-size="10" style="fill:blue">xs:sequence</text><path d="M660 1490 C680 1490 660 1490 680 1490" style="fill:transparent;stroke:black" /><rect x="900" y="1470" width="200" height="40" style="fill:white;stroke:black;stroke-width:1" /><text x="910" y="1480" font-size="10" style="fill:blue">xs:element</text><path d="M880 1490 C900 1490 880 1490 900 1490" style="fill:transparent;stroke:black" /><text x="910" y="1490" font-size="8" style="fill:black">ref: Ciudad</text><rect x="900" y="1520" width="200" height="40" style="fill:white;stroke:black;stroke-width:1" /><text x="910" y="1530" font-size="10" style="fill:blue">xs:element</text><path d="M880 1490 C900 1490 880 1540 900 1540" style="fill:transparent;stroke:black" /><text x="910" y="1540" font-size="8" style="fill:black">ref: direccion</text><rect x="900" y="1570" width="200" height="40" style="fill:white;stroke:black;stroke-width:1" /><text x="910" y="1580" font-size="10" style="fill:blue">xs:element</text><path d="M880 1490 C900 1490 880 1590 900 1590" style="fill:transparent;stroke:black" /><text x="910" y="1590" font-size="8" style="fill:black">ref: coordenadas</text><rect x="680" y="1670" width="200" height="40" style="fill:white;stroke:black;stroke-width:1" /><text x="690" y="1680" font-size="10" style="fill:blue">xs:attribute</text><path d="M660 1490 C680 1490 660 1690 680 1690" style="fill:transparent;stroke:black" /><text x="690" y="1690" font-size="8" style="fill:black">name: pais</text><text x="690" y="1700" font-size="8" style="fill:black">type: xs:string</text><text x="690" y="1710" font-size="8" style="fill:black">use: required</text><rect x="240" y="1820" width="200" height="40" style="fill:white;stroke:black;stroke-width:1" /><text x="250" y="1830" font-size="10" style="fill:blue">xs:element</text><path d="M220 40 C240 40 220 1840 240 1840" style="fill:transparent;stroke:black" /><text x="250" y="1840" font-size="8" style="fill:black">name: Coordenadas</text><rect x="460" y="1820" width="200" height="40" style="fill:white;stroke:black;stroke-width:1" /><text x="470" y="1830" font-size="10" style="fill:blue">xs:complexType</text><path d="M440 1840 C460 1840 440 1840 460 1840" style="fill:transparent;stroke:black" /><rect x="680" y="1820" width="200" height="40" style="fill:white;stroke:black;stroke-width:1" /><text x="690" y="1830" font-size="10" style="fill:blue">xs:sequence</text><path d="M660 1840 C680 1840 660 1840 680 1840" style="fill:transparent;stroke:black" /><rect x="900" y="1820" width="200" height="40" style="fill:white;stroke:black;stroke-width:1" /><text x="910" y="1830" font-size="10" style="fill:blue">xs:element</text><path d="M880 1840 C900 1840 880 1840 900 1840" style="fill:transparent;stroke:black" /><text x="910" y="1840" font-size="8" style="fill:black">ref: latitud</text><rect x="900" y="1870" width="200" height="40" style="fill:white;stroke:black;stroke-width:1" /><text x="910" y="1880" font-size="10" style="fill:blue">xs:element</text><path d="M880 1840 C900 1840 880 1890 900 1890" style="fill:transparent;stroke:black" /><text x="910" y="1890" font-size="8" style="fill:black">ref: longitud</text><rect x="900" y="1920" width="200" height="40" style="fill:white;stroke:black;stroke-width:1" /><text x="910" y="1930" font-size="10" style="fill:blue">xs:element</text><path d="M880 1840 C900 1840 880 1940 900 1940" style="fill:transparent;stroke:black" /><text x="910" y="1940" font-size="8" style="fill:black">ref: altura</text><rect x="240" y="2120" width="200" height="40" style="fill:white;stroke:black;stroke-width:1" /><text x="250" y="2130" font-size="10" style="fill:blue">xs:element</text><path d="M220 40 C240 40 220 2140 240 2140" style="fill:transparent;stroke:black" /><text x="250" y="2140" font-size="8" style="fill:black">name: Referencias</text><rect x="460" y="2120" width="200" height="40" style="fill:white;stroke:black;stroke-width:1" /><text x="470" y="2130" font-size="10" style="fill:blue">xs:complexType</text><path d="M440 2140 C460 2140 440 2140 460 2140" style="fill:transparent;stroke:black" /><rect x="680" y="2120" width="200" height="40" style="fill:white;stroke:black;stroke-width:1" /><text x="690" y="2130" font-size="10" style="fill:blue">xs:sequence</text><path d="M660 2140 C680 2140 660 2140 680 2140" style="fill:transparent;stroke:black" /><rect x="900" y="2120" width="200" height="40" style="fill:white;stroke:black;stroke-width:1" /><text x="910" y="2130" font-size="10" style="fill:blue">xs:element</text><path d="M880 2140 C900 2140 880 2140 900 2140" style="fill:transparent;stroke:black" /><text x="910" y="2140" font-size="8" style="fill:black">ref: referencia</text><rect x="240" y="2320" width="200" height="40" style="fill:white;stroke:black;stroke-width:1" /><text x="250" y="2330" font-size="10" style="fill:blue">xs:element</text><path d="M220 40 C240 40 220 2340 240 2340" style="fill:transparent;stroke:black" /><text x="250" y="2340" font-size="8" style="fill:black">name: coordenadasRuta</text><rect x="460" y="2320" width="200" height="40" style="fill:white;stroke:black;stroke-width:1" /><text x="470" y="2330" font-size="10" style="fill:blue">xs:complexType</text><path d="M440 2340 C460 2340 440 2340 460 2340" style="fill:transparent;stroke:black" /><rect x="680" y="2320" width="200" height="40" style="fill:white;stroke:black;stroke-width:1" /><text x="690" y="2330" font-size="10" style="fill:blue">xs:sequence</text><path d="M660 2340 C680 2340 660 2340 680 2340" style="fill:transparent;stroke:black" /><rect x="900" y="2320" width="200" height="40" style="fill:white;stroke:black;stroke-width:1" /><text x="910" y="2330" font-size="10" style="fill:blue">xs:element</text><path d="M880 2340 C900 2340 880 2340 900 2340" style="fill:transparent;stroke:black" /><text x="910" y="2340" font-size="8" style="fill:black">minOccurs: 1</text><text x="910" y="2350" font-size="8" style="fill:black">maxOccurs: unbounded</text><text x="910" y="2360" font-size="8" style="fill:black">ref: coordenadas</text><rect x="240" y="2520" width="200" height="40" style="fill:white;stroke:black;stroke-width:1" /><text x="250" y="2530" font-size="10" style="fill:blue">xs:element</text><path d="M220 40 C240 40 220 2540 240 2540" style="fill:transparent;stroke:black" /><text x="250" y="2540" font-size="8" style="fill:black">name: coordenadas</text><rect x="460" y="2520" width="200" height="40" style="fill:white;stroke:black;stroke-width:1" /><text x="470" y="2530" font-size="10" style="fill:blue">xs:complexType</text><path d="M440 2540 C460 2540 440 2540 460 2540" style="fill:transparent;stroke:black" /><rect x="680" y="2520" width="200" height="40" style="fill:white;stroke:black;stroke-width:1" /><text x="690" y="2530" font-size="10" style="fill:blue">xs:sequence</text><path d="M660 2540 C680 2540 660 2540 680 2540" style="fill:transparent;stroke:black" /><rect x="900" y="2520" width="200" height="40" style="fill:white;stroke:black;stroke-width:1" /><text x="910" y="2530" font-size="10" style="fill:blue">xs:element</text><path d="M880 2540 C900 2540 880 2540 900 2540" style="fill:transparent;stroke:black" /><text x="910" y="2540" font-size="8" style="fill:black">ref: altura</text><rect x="680" y="2620" width="200" height="40" style="fill:white;stroke:black;stroke-width:1" /><text x="690" y="2630" font-size="10" style="fill:blue">xs:attribute</text><path d="M660 2540 C680 2540 660 2640 680 2640" style="fill:transparent;stroke:black" /><text x="690" y="2640" font-size="8" style="fill:black">name: lat</text><text x="690" y="2650" font-size="8" style="fill:black">type: xs:string</text><text x="690" y="2660" font-size="8" style="fill:black">use: required</text><rect x="680" y="2670" width="200" height="40" style="fill:white;stroke:black;stroke-width:1" /><text x="690" y="2680" font-size="10" style="fill:blue">xs:attribute</text><path d="M660 2540 C680 2540 660 2690 680 2690" style="fill:transparent;stroke:black" /><text x="690" y="2690" font-size="8" style="fill:black">name: lon</text><text x="690" y="2700" font-size="8" style="fill:black">type: xs:string</text><text x="690" y="2710" font-size="8" style="fill:black">use: required</text><rect x="240" y="2820" width="200" height="40" style="fill:white;stroke:black;stroke-width:1" /><text x="250" y="2830" font-size="10" style="fill:blue">xs:element</text><path d="M220 40 C240 40 220 2840 240 2840" style="fill:transparent;stroke:black" /><text x="250" y="2840" font-size="8" style="fill:black">name: Hitos</text><rect x="460" y="2820" width="200" height="40" style="fill:white;stroke:black;stroke-width:1" /><text x="470" y="2830" font-size="10" style="fill:blue">xs:complexType</text><path d="M440 2840 C460 2840 440 2840 460 2840" style="fill:transparent;stroke:black" /><rect x="680" y="2820" width="200" height="40" style="fill:white;stroke:black;stroke-width:1" /><text x="690" y="2830" font-size="10" style="fill:blue">xs:sequence</text><path d="M660 2840 C680 2840 660 2840 680 2840" style="fill:transparent;stroke:black" /><rect x="900" y="2820" width="200" height="40" style="fill:white;stroke:black;stroke-width:1" /><text x="910" y="2830" font-size="10" style="fill:blue">xs:element</text><path d="M880 2840 C900 2840 880 2840 900 2840" style="fill:transparent;stroke:black" /><text x="910" y="2840" font-size="8" style="fill:black">minOccurs: 1</text><text x="910" y="2850" font-size="8" style="fill:black">maxOccurs: unbounded</text><text x="910" y="2860" font-size="8" style="fill:black">ref: Hito</text><rect x="240" y="3020" width="200" height="40" style="fill:white;stroke:black;stroke-width:1" /><text x="250" y="3030" font-size="10" style="fill:blue">xs:element</text><path d="M220 40 C240 40 220 3040 240 3040" style="fill:transparent;stroke:black" /><text x="250" y="3040" font-size="8" style="fill:black">name: Hito</text><rect x="460" y="3020" width="200" height="40" style="fill:white;stroke:black;stroke-width:1" /><text x="470" y="3030" font-size="10" style="fill:blue">xs:complexType</text><path d="M440 3040 C460 3040 440 3040 460 3040" style="fill:transparent;stroke:black" /><rect x="680" y="3020" width="200" height="40" style="fill:white;stroke:black;stroke-width:1" /><text x="690" y="3030" font-size="10" style="fill:blue">xs:sequence</text><path d="M660 3040 C680 3040 660 3040 680 3040" style="fill:transparent;stroke:black" /><rect x="900" y="3020" width="200" height="40" style="fill:white;stroke:black;stroke-width:1" /><text x="910" y="3030" font-size="10" style="fill:blue">xs:element</text><path d="M880 3040 C900 3040 880 3040 900 3040" style="fill:transparent;stroke:black" /><text x="910" y="3040" font-size="8" style="fill:black">ref: Descripcion</text><rect x="900" y="3070" width="200" height="40" style="fill:white;stroke:black;stroke-width:1" /><text x="910" y="3080" font-size="10" style="fill:blue">xs:element</text><path d="M880 3040 C900 3040 880 3090 900 3090" style="fill:transparent;stroke:black" /><text x="910" y="3090" font-size="8" style="fill:black">ref: Localizacion</text><rect x="900" y="3120" width="200" height="40" style="fill:white;stroke:black;stroke-width:1" /><text x="910" y="3130" font-size="10" style="fill:blue">xs:element</text><path d="M880 3040 C900 3040 880 3140 900 3140" style="fill:transparent;stroke:black" /><text x="910" y="3140" font-size="8" style="fill:black">ref: distancia-hito-anterior</text><rect x="900" y="3170" width="200" height="40" style="fill:white;stroke:black;stroke-width:1" /><text x="910" y="3180" font-size="10" style="fill:blue">xs:element</text><path d="M880 3040 C900 3040 880 3190 900 3190" style="fill:transparent;stroke:black" /><text x="910" y="3190" font-size="8" style="fill:black">ref: Galeria-img</text><rect x="900" y="3220" width="200" height="40" style="fill:white;stroke:black;stroke-width:1" /><text x="910" y="3230" font-size="10" style="fill:blue">xs:element</text><path d="M880 3040 C900 3040 880 3240 900 3240" style="fill:transparent;stroke:black" /><text x="910" y="3240" font-size="8" style="fill:black">ref: Galeria-video</text><rect x="680" y="3320" width="200" height="40" style="fill:white;stroke:black;stroke-width:1" /><text x="690" y="3330" font-size="10" style="fill:blue">xs:attribute</text><path d="M660 3040 C680 3040 660 3340 680 3340" style="fill:transparent;stroke:black" /><text x="690" y="3340" font-size="8" style="fill:black">name: nombre</text><text x="690" y="3350" font-size="8" style="fill:black">type: xs:string</text><text x="690" y="3360" font-size="8" style="fill:black">use: required</text><rect x="240" y="3470" width="200" height="40" style="fill:white;stroke:black;stroke-width:1" /><text x="250" y="3480" font-size="10" style="fill:blue">xs:element</text><path d="M220 40 C240 40 220 3490 240 3490" style="fill:transparent;stroke:black" /><text x="250" y="3490" font-size="8" style="fill:black">name: Galeria-video</text><rect x="460" y="3470" width="200" height="40" style="fill:white;stroke:black;stroke-width:1" /><text x="470" y="3480" font-size="10" style="fill:blue">xs:complexType</text><path d="M440 3490 C460 3490 440 3490 460 3490" style="fill:transparent;stroke:black" /><rect x="680" y="3470" width="200" height="40" style="fill:white;stroke:black;stroke-width:1" /><text x="690" y="3480" font-size="10" style="fill:blue">xs:sequence</text><path d="M660 3490 C680 3490 660 3490 680 3490" style="fill:transparent;stroke:black" /><rect x="900" y="3470" width="200" height="40" style="fill:white;stroke:black;stroke-width:1" /><text x="910" y="3480" font-size="10" style="fill:blue">xs:element</text><path d="M880 3490 C900 3490 880 3490 900 3490" style="fill:transparent;stroke:black" /><text x="910" y="3490" font-size="8" style="fill:black">minOccurs: 1</text><text x="910" y="3500" font-size="8" style="fill:black">maxOccurs: unbounded</text><text x="910" y="3510" font-size="8" style="fill:black">ref: video</text><rect x="240" y="3670" width="200" height="40" style="fill:white;stroke:black;stroke-width:1" /><text x="250" y="3680" font-size="10" style="fill:blue">xs:element</text><path d="M220 40 C240 40 220 3690 240 3690" style="fill:transparent;stroke:black" /><text x="250" y="3690" font-size="8" style="fill:black">name: Galeria-img</text><rect x="460" y="3670" width="200" height="40" style="fill:white;stroke:black;stroke-width:1" /><text x="470" y="3680" font-size="10" style="fill:blue">xs:complexType</text><path d="M440 3690 C460 3690 440 3690 460 3690" style="fill:transparent;stroke:black" /><rect x="680" y="3670" width="200" height="40" style="fill:white;stroke:black;stroke-width:1" /><text x="690" y="3680" font-size="10" style="fill:blue">xs:sequence</text><path d="M660 3690 C680 3690 660 3690 680 3690" style="fill:transparent;stroke:black" /><rect x="900" y="3670" width="200" height="40" style="fill:white;stroke:black;stroke-width:1" /><text x="910" y="3680" font-size="10" style="fill:blue">xs:element</text><path d="M880 3690 C900 3690 880 3690 900 3690" style="fill:transparent;stroke:black" /><text x="910" y="3690" font-size="8" style="fill:black">minOccurs: 1</text><text x="910" y="3700" font-size="8" style="fill:black">maxOccurs: unbounded</text><text x="910" y="3710" font-size="8" style="fill:black">ref: img</text><rect x="240" y="3870" width="200" height="40" style="fill:white;stroke:black;stroke-width:1" /><text x="250" y="3880" font-size="10" style="fill:blue">xs:element</text><path d="M220 40 C240 40 220 3890 240 3890" style="fill:transparent;stroke:black" /><text x="250" y="3890" font-size="8" style="fill:black">name: fecha</text><rect x="460" y="3870" width="200" height="40" style="fill:white;stroke:black;stroke-width:1" /><text x="470" y="3880" font-size="10" style="fill:blue">xs:complexType</text><path d="M440 3890 C460 3890 440 3890 460 3890" style="fill:transparent;stroke:black" /><rect x="680" y="3870" width="200" height="40" style="fill:white;stroke:black;stroke-width:1" /><text x="690" y="3880" font-size="10" style="fill:blue">xs:simpleContent</text><path d="M660 3890 C680 3890 660 3890 680 3890" style="fill:transparent;stroke:black" /><rect x="900" y="3870" width="200" height="40" style="fill:white;stroke:black;stroke-width:1" /><text x="910" y="3880" font-size="10" style="fill:blue">xs:extension</text><path d="M880 3890 C900 3890 880 3890 900 3890" style="fill:transparent;stroke:black" /><text x="910" y="3890" font-size="8" style="fill:black">base: xs:string</text><rect x="1120" y="3870" width="200" height="40" style="fill:white;stroke:black;stroke-width:1" /><text x="1130" y="3880" font-size="10" style="fill:blue">xs:attribute</text><path d="M1100 3890 C1120 3890 1100 3890 1120 3890" style="fill:transparent;stroke:black" /><text x="1130" y="3890" font-size="8" style="fill:black">name: type-date</text><text x="1130" y="3900" font-size="8" style="fill:black">type: xs:string</text><text x="1130" y="3910" font-size="8" style="fill:black">use: required</text><rect x="240" y="4120" width="200" height="40" style="fill:white;stroke:black;stroke-width:1" /><text x="250" y="4130" font-size="10" style="fill:blue">xs:element</text><path d="M220 40 C240 40 220 4140 240 4140" style="fill:transparent;stroke:black" /><text x="250" y="4140" font-size="8" style="fill:black">name: hora</text><rect x="460" y="4120" width="200" height="40" style="fill:white;stroke:black;stroke-width:1" /><text x="470" y="4130" font-size="10" style="fill:blue">xs:complexType</text><path d="M440 4140 C460 4140 440 4140 460 4140" style="fill:transparent;stroke:black" /><rect x="680" y="4120" width="200" height="40" style="fill:white;stroke:black;stroke-width:1" /><text x="690" y="4130" font-size="10" style="fill:blue">xs:simpleContent</text><path d="M660 4140 C680 4140 660 4140 680 4140" style="fill:transparent;stroke:black" /><rect x="900" y="4120" width="200" height="40" style="fill:white;stroke:black;stroke-width:1" /><text x="910" y="4130" font-size="10" style="fill:blue">xs:extension</text><path d="M880 4140 C900 4140 880 4140 900 4140" style="fill:transparent;stroke:black" /><text x="910" y="4140" font-size="8" style="fill:black">base: xs:string</text><rect x="1120" y="4120" width="200" height="40" style="fill:white;stroke:black;stroke-width:1" /><text x="1130" y="4130" font-size="10" style="fill:blue">xs:attribute</text><path d="M1100 4140 C1120 4140 1100 4140 1120 4140" style="fill:transparent;stroke:black" /><text x="1130" y="4140" font-size="8" style="fill:black">name: type-hour</text><text x="1130" y="4150" font-size="8" style="fill:black">type: xs:string</text><text x="1130" y="4160" font-size="8" style="fill:black">use: required</text><rect x="240" y="4370" width="200" height="40" style="fill:white;stroke:black;stroke-width:1" /><text x="250" y="4380" font-size="10" style="fill:blue">xs:element</text><path d="M220 40 C240 40 220 4390 240 4390" style="fill:transparent;stroke:black" /><text x="250" y="4390" font-size="8" style="fill:black">name: tiempo</text><rect x="460" y="4370" width="200" height="40" style="fill:white;stroke:black;stroke-width:1" /><text x="470" y="4380" font-size="10" style="fill:blue">xs:complexType</text><path d="M440 4390 C460 4390 440 4390 460 4390" style="fill:transparent;stroke:black" /><rect x="680" y="4370" width="200" height="40" style="fill:white;stroke:black;stroke-width:1" /><text x="690" y="4380" font-size="10" style="fill:blue">xs:simpleContent</text><path d="M660 4390 C680 4390 660 4390 680 4390" style="fill:transparent;stroke:black" /><rect x="900" y="4370" width="200" height="40" style="fill:white;stroke:black;stroke-width:1" /><text x="910" y="4380" font-size="10" style="fill:blue">xs:extension</text><path d="M880 4390 C900 4390 880 4390 900 4390" style="fill:transparent;stroke:black" /><text x="910" y="4390" font-size="8" style="fill:black">base: xs:string</text><rect x="1120" y="4370" width="200" height="40" style="fill:white;stroke:black;stroke-width:1" /><text x="1130" y="4380" font-size="10" style="fill:blue">xs:attribute</text><path d="M1100 4390 C1120 4390 1100 4390 1120 4390" style="fill:transparent;stroke:black" /><text x="1130" y="4390" font-size="8" style="fill:black">name: unidad</text><text x="1130" y="4400" font-size="8" style="fill:black">type: xs:string</text><text x="1130" y="4410" font-size="8" style="fill:black">use: required</text><rect x="240" y="4620" width="200" height="40" style="fill:white;stroke:black;stroke-width:1" /><text x="250" y="4630" font-size="10" style="fill:blue">xs:element</text><path d="M220 40 C240 40 220 4640 240 4640" style="fill:transparent;stroke:black" /><text x="250" y="4640" font-size="8" style="fill:black">name: Descripcion</text><text x="250" y="4650" font-size="8" style="fill:black">type: xs:string</text><rect x="240" y="4670" width="200" height="40" style="fill:white;stroke:black;stroke-width:1" /><text x="250" y="4680" font-size="10" style="fill:blue">xs:element</text><path d="M220 40 C240 40 220 4690 240 4690" style="fill:transparent;stroke:black" /><text x="250" y="4690" font-size="8" style="fill:black">name: recomendacion</text><text x="250" y="4700" font-size="8" style="fill:black">type: xs:string</text><rect x="240" y="4720" width="200" height="40" style="fill:white;stroke:black;stroke-width:1" /><text x="250" y="4730" font-size="10" style="fill:blue">xs:element</text><path d="M220 40 C240 40 220 4740 240 4740" style="fill:transparent;stroke:black" /><text x="250" y="4740" font-size="8" style="fill:black">name: Ciudad</text><text x="250" y="4750" font-size="8" style="fill:black">type: xs:string</text><rect x="240" y="4770" width="200" height="40" style="fill:white;stroke:black;stroke-width:1" /><text x="250" y="4780" font-size="10" style="fill:blue">xs:element</text><path d="M220 40 C240 40 220 4790 240 4790" style="fill:transparent;stroke:black" /><text x="250" y="4790" font-size="8" style="fill:black">name: direccion</text><text x="250" y="4800" font-size="8" style="fill:black">type: xs:string</text><rect x="240" y="4820" width="200" height="40" style="fill:white;stroke:black;stroke-width:1" /><text x="250" y="4830" font-size="10" style="fill:blue">xs:element</text><path d="M220 40 C240 40 220 4840 240 4840" style="fill:transparent;stroke:black" /><text x="250" y="4840" font-size="8" style="fill:black">name: latitud</text><text x="250" y="4850" font-size="8" style="fill:black">type: xs:string</text><rect x="240" y="4870" width="200" height="40" style="fill:white;stroke:black;stroke-width:1" /><text x="250" y="4880" font-size="10" style="fill:blue">xs:element</text><path d="M220 40 C240 40 220 4890 240 4890" style="fill:transparent;stroke:black" /><text x="250" y="4890" font-size="8" style="fill:black">name: longitud</text><text x="250" y="4900" font-size="8" style="fill:black">type: xs:string</text><rect x="240" y="4920" width="200" height="40" style="fill:white;stroke:black;stroke-width:1" /><text x="250" y="4930" font-size="10" style="fill:blue">xs:element</text><path d="M220 40 C240 40 220 4940 240 4940" style="fill:transparent;stroke:black" /><text x="250" y="4940" font-size="8" style="fill:black">name: altura</text><text x="250" y="4950" font-size="8" style="fill:black">type: xs:string</text><rect x="240" y="4970" width="200" height="40" style="fill:white;stroke:black;stroke-width:1" /><text x="250" y="4980" font-size="10" style="fill:blue">xs:element</text><path d="M220 40 C240 40 220 4990 240 4990" style="fill:transparent;stroke:black" /><text x="250" y="4990" font-size="8" style="fill:black">name: referencia</text><text x="250" y="5000" font-size="8" style="fill:black">type: xs:string</text><rect x="240" y="5020" width="200" height="40" style="fill:white;stroke:black;stroke-width:1" /><text x="250" y="5030" font-size="10" style="fill:blue">xs:element</text><path d="M220 40 C240 40 220 5040 240 5040" style="fill:transparent;stroke:black" /><text x="250" y="5040" font-size="8" style="fill:black">name: distancia-hito-anterior</text><rect x="460" y="5020" width="200" height="40" style="fill:white;stroke:black;stroke-width:1" /><text x="470" y="5030" font-size="10" style="fill:blue">xs:complexType</text><path d="M440 5040 C460 5040 440 5040 460 5040" style="fill:transparent;stroke:black" /><rect x="680" y="5020" width="200" height="40" style="fill:white;stroke:black;stroke-width:1" /><text x="690" y="5030" font-size="10" style="fill:blue">xs:simpleContent</text><path d="M660 5040 C680 5040 660 5040 680 5040" style="fill:transparent;stroke:black" /><rect x="900" y="5020" width="200" height="40" style="fill:white;stroke:black;stroke-width:1" /><text x="910" y="5030" font-size="10" style="fill:blue">xs:extension</text><path d="M880 5040 C900 5040 880 5040 900 5040" style="fill:transparent;stroke:black" /><text x="910" y="5040" font-size="8" style="fill:black">base: xs:string</text><rect x="1120" y="5020" width="200" height="40" style="fill:white;stroke:black;stroke-width:1" /><text x="1130" y="5030" font-size="10" style="fill:blue">xs:attribute</text><path d="M1100 5040 C1120 5040 1100 5040 1120 5040" style="fill:transparent;stroke:black" /><text x="1130" y="5040" font-size="8" style="fill:black">name: unidad</text><text x="1130" y="5050" font-size="8" style="fill:black">type: xs:string</text><text x="1130" y="5060" font-size="8" style="fill:black">use: required</text><rect x="1120" y="5070" width="200" height="40" style="fill:white;stroke:black;stroke-width:1" /><text x="1130" y="5080" font-size="10" style="fill:blue">xs:attribute</text><path d="M1100 5040 C1120 5040 1100 5090 1120 5090" style="fill:transparent;stroke:black" /><text x="1130" y="5090" font-size="8" style="fill:black">name: tiempo</text><text x="1130" y="5100" font-size="8" style="fill:black">type: xs:string</text><text x="1130" y="5110" font-size="8" style="fill:black">use: required</text><rect x="240" y="5320" width="200" height="40" style="fill:white;stroke:black;stroke-width:1" /><text x="250" y="5330" font-size="10" style="fill:blue">xs:element</text><path d="M220 40 C240 40 220 5340 240 5340" style="fill:transparent;stroke:black" /><text x="250" y="5340" font-size="8" style="fill:black">name: img</text><rect x="460" y="5320" width="200" height="40" style="fill:white;stroke:black;stroke-width:1" /><text x="470" y="5330" font-size="10" style="fill:blue">xs:complexType</text><path d="M440 5340 C460 5340 440 5340 460 5340" style="fill:transparent;stroke:black" /><rect x="680" y="5320" width="200" height="40" style="fill:white;stroke:black;stroke-width:1" /><text x="690" y="5330" font-size="10" style="fill:blue">xs:simpleContent</text><path d="M660 5340 C680 5340 660 5340 680 5340" style="fill:transparent;stroke:black" /><rect x="900" y="5320" width="200" height="40" style="fill:white;stroke:black;stroke-width:1" /><text x="910" y="5330" font-size="10" style="fill:blue">xs:extension</text><path d="M880 5340 C900 5340 880 5340 900 5340" style="fill:transparent;stroke:black" /><text x="910" y="5340" font-size="8" style="fill:black">base: xs:string</text><rect x="1120" y="5320" width="200" height="40" style="fill:white;stroke:black;stroke-width:1" /><text x="1130" y="5330" font-size="10" style="fill:blue">xs:attribute</text><path d="M1100 5340 C1120 5340 1100 5340 1120 5340" style="fill:transparent;stroke:black" /><text x="1130" y="5340" font-size="8" style="fill:black">name: type</text><text x="1130" y="5350" font-size="8" style="fill:black">type: xs:string</text><text x="1130" y="5360" font-size="8" style="fill:black">use: required</text><rect x="240" y="5570" width="200" height="40" style="fill:white;stroke:black;stroke-width:1" /><text x="250" y="5580" font-size="10" style="fill:blue">xs:element</text><path d="M220 40 C240 40 220 5590 240 5590" style="fill:transparent;stroke:black" /><text x="250" y="5590" font-size="8" style="fill:black">name: video</text><rect x="460" y="5570" width="200" height="40" style="fill:white;stroke:black;stroke-width:1" /><text x="470" y="5580" font-size="10" style="fill:blue">xs:complexType</text><path d="M440 5590 C460 5590 440 5590 460 5590" style="fill:transparent;stroke:black" /><rect x="680" y="5570" width="200" height="40" style="fill:white;stroke:black;stroke-width:1" /><text x="690" y="5580" font-size="10" style="fill:blue">xs:simpleContent</text><path d="M660 5590 C680 5590 660 5590 680 5590" style="fill:transparent;stroke:black" /><rect x="900" y="5570" width="200" height="40" style="fill:white;stroke:black;stroke-width:1" /><text x="910" y="5580" font-size="10" style="fill:blue">xs:extension</text><path d="M880 5590 C900 5590 880 5590 900 5590" style="fill:transparent;stroke:black" /><text x="910" y="5590" font-size="8" style="fill:black">base: xs:string</text><rect x="1120" y="5570" width="200" height="40" style="fill:white;stroke:black;stroke-width:1" /><text x="1130" y="5580" font-size="10" style="fill:blue">xs:attribute</text><path d="M1100 5590 C1120 5590 1100 5590 1120 5590" style="fill:transparent;stroke:black" /><text x="1130" y="5590" font-size="8" style="fill:black">name: type</text><text x="1130" y="5600" font-size="8" style="fill:black">type: xs:string</text><text x="1130" y="5610" font-size="8" style="fill:black">use: required</text></svg>